HIERARCHY
ROOT Hips
{
	OFFSET 0.000000 0.000000 0.000000
	CHANNELS 6 Xposition Yposition Zposition Yrotation Xrotation Zrotation
	JOINT Chest
	{
		OFFSET 0.000000 -0.009281 11.569106
		CHANNELS 3 Yrotation Xrotation Zrotation
		JOINT Chest2
		{
			OFFSET -0.000000 0.016865 9.269641
			CHANNELS 3 Yrotation Xrotation Zrotation
			JOINT Chest3
			{
				OFFSET -0.000000 0.000001 8.374491
				CHANNELS 3 Yrotation Xrotation Zrotation
				JOINT Chest4
				{
					OFFSET -0.000000 0.000001 8.374493
					CHANNELS 3 Yrotation Xrotation Zrotation
					JOINT Neck
					{
						OFFSET -0.000000 0.000002 12.152554
						CHANNELS 3 Yrotation Xrotation Zrotation
						JOINT Head
						{
							OFFSET -0.000000 0.040101 7.802319
							CHANNELS 3 Yrotation Xrotation Zrotation
							End Site
							{
								OFFSET -0.000000 0.020947 14.853096
							}
						}
					}
					JOINT RightCollar
					{
						OFFSET 2.894404 0.000001 6.791374
						CHANNELS 3 Yrotation Xrotation Zrotation
						JOINT RightShoulder
						{
							OFFSET 13.574684 0.000001 0.000000
							CHANNELS 3 Yrotation Xrotation Zrotation
							JOINT RightElbow
							{
								OFFSET 23.923903 0.000002 0.000000
								CHANNELS 3 Yrotation Xrotation Zrotation
								JOINT RightWrist
								{
									OFFSET 19.846718 0.012767 0.000000
									CHANNELS 3 Yrotation Xrotation Zrotation
									End Site
									{
										OFFSET 14.973145 0.000001 0.000000
									}
								}
							}
						}
					}
					JOINT LeftCollar
					{
						OFFSET -2.894404 0.000001 6.791374
						CHANNELS 3 Yrotation Xrotation Zrotation
						JOINT LeftShoulder
						{
							OFFSET -13.574684 -0.000001 0.000000
							CHANNELS 3 Yrotation Xrotation Zrotation
							JOINT LeftElbow
							{
								OFFSET -23.923903 -0.000002 0.000000
								CHANNELS 3 Yrotation Xrotation Zrotation
								JOINT LeftWrist
								{
									OFFSET -19.846718 0.012763 0.000000
									CHANNELS 3 Yrotation Xrotation Zrotation
									End Site
									{
										OFFSET -14.973145 -0.000001 0.000000
									}
								}
							}
						}
					}
				}
			}
		}
	}
	JOINT RightHip
	{
		OFFSET 9.469263 0.004643 0.045487
		CHANNELS 3 Yrotation Xrotation Zrotation
		JOINT RightKnee
		{
			OFFSET 0.000000 0.002661 -40.478676
			CHANNELS 3 Yrotation Xrotation Zrotation
			JOINT RightAnkle
			{
				OFFSET 0.000000 0.049106 -35.224068
				CHANNELS 3 Yrotation Xrotation Zrotation
				JOINT RightToe
				{
					OFFSET -0.000001 12.539529 -6.151390
					CHANNELS 3 Yrotation Xrotation Zrotation
					End Site
					{
						OFFSET -0.000001 5.044994 -1.291870
					}
				}
			}
		}
	}
	JOINT LeftHip
	{
		OFFSET -9.469263 0.004641 0.045487
		CHANNELS 3 Yrotation Xrotation Zrotation
		JOINT LeftKnee
		{
			OFFSET 0.000000 0.002661 -40.478676
			CHANNELS 3 Yrotation Xrotation Zrotation
			JOINT LeftAnkle
			{
				OFFSET 0.000000 0.049106 -35.224068
				CHANNELS 3 Yrotation Xrotation Zrotation
				JOINT LeftToe
				{
					OFFSET -0.000001 12.539529 -6.151390
					CHANNELS 3 Yrotation Xrotation Zrotation
					End Site
					{
						OFFSET -0.000001 5.044994 -1.291870
					}
				}
			}
		}
	}
}
MOTION
Frames: 14
Frame Time: 0.016667
74.472687 132.459656 83.866455 -5.447811 13.450295 30.878449 3.932090 -1.890529 -0.454055 1.799440 -1.060414 -0.012063 1.799439 -1.060415 -0.012068 1.349520 -0.795354 -0.005926 0.403228 -17.073467 2.823152 1.726738 4.410567 5.363757 10.253693 3.326371 -1.506614 55.467454 4.543922 -23.147890 -8.969375 -23.225334 -14.542800 -4.578061 -1.530334 4.094704 -7.735759 -0.181919 -0.831297 -82.289129 3.978507 -14.899948 -14.545270 9.154761 -33.166750 4.296540 7.681470 -24.316366 6.113928 8.250627 6.122570 1.934586 -8.818552 -3.345067 12.198318 -2.418911 0.105756 -4.362020 1.289011 0.172814 2.197701 -14.501702 -10.670084 1.299677 -29.016539 8.538292 22.353601 -4.088816 -5.243191 -14.831669 38.258840 -3.622942 
74.260513 134.175995 83.184868 -4.715918 13.307121 32.380954 2.307237 -2.036589 -1.080827 2.021808 -1.089734 0.051579 2.021809 -1.089734 0.051575 1.516403 -0.817141 0.042291 0.748846 -16.884386 2.775360 2.358425 4.745932 5.402746 10.128682 3.546713 -1.719432 54.451327 3.384068 -22.723192 -9.455636 -23.776478 -14.350157 -6.230503 -1.889151 4.880114 -7.326371 -0.564697 -0.778106 -83.620312 4.300434 -14.964256 -15.207242 9.714679 -33.407616 4.797797 9.070558 -25.156500 6.063938 7.140729 3.111222 2.641570 -9.358952 -3.334756 10.324499 -2.984576 0.815692 -3.402093 2.833569 0.706997 1.933723 -11.844643 -10.960182 1.611480 -34.605693 10.456446 21.898493 -5.909889 -8.761537 -14.073659 44.203140 -1.274328 
74.366135 136.182144 82.792984 -4.197562 13.599982 33.464768 1.201538 -2.618864 -1.223580 2.219719 -1.081025 0.078432 2.219720 -1.081025 0.078432 1.664878 -0.810497 0.062744 1.061354 -16.636589 2.712619 2.927641 5.191804 5.406665 9.987289 3.226111 -1.993940 53.771235 2.437671 -21.351045 -9.916716 -24.240147 -14.152388 -7.603525 -2.565878 5.198093 -7.048610 -0.898782 -0.681367 -84.639677 4.447681 -14.825817 -15.929400 10.541036 -33.634823 5.736237 10.187270 -25.519595 5.721526 5.368273 -0.300857 3.343676 -9.516818 -2.970441 9.241472 -1.687261 2.269439 -2.733799 2.411668 0.608819 1.871417 -8.893880 -10.311938 2.259372 -40.106475 10.654718 22.941588 -10.888805 -8.631766 -18.179182 51.103329 -3.903732 
73.981049 138.150421 82.485283 -4.985067 15.354125 34.189372 2.036700 -3.766385 -1.172621 2.405690 -1.032515 0.065498 2.405688 -1.032515 0.065497 1.804329 -0.774143 0.053186 1.330158 -16.427365 2.629283 3.407630 5.569048 5.356953 10.111701 2.872679 -1.955809 53.125358 1.642353 -19.643177 -10.263239 -24.879553 -14.119250 -8.797962 -3.261932 5.308969 -7.138334 -0.705780 -0.554772 -85.131642 4.665924 -14.000389 -16.595773 11.314811 -33.642189 6.813900 11.040758 -25.654503 7.345134 2.701495 -2.960078 3.957555 -9.030932 -2.789599 8.879429 -1.160364 4.531260 -2.803956 2.557842 -0.998001 3.902309 -6.379018 -8.689282 3.891556 -44.682193 8.925090 24.695430 -15.653812 -6.767664 -26.625203 55.387964 -10.689340 
73.536316 140.011383 82.164711 -6.639180 16.733214 34.898589 3.447872 -4.035974 -1.128884 2.579808 -0.986870 0.018183 2.579810 -0.986871 0.018183 1.934837 -0.740092 0.017799 1.593994 -16.220822 2.505294 3.864457 5.943569 5.231121 10.422299 2.848704 -1.864111 52.571515 0.775311 -17.915475 -10.560850 -25.769522 -14.089324 -10.082704 -3.897533 5.505990 -7.335138 -0.858313 -0.548994 -85.526693 5.156198 -13.359745 -16.947834 11.878583 -33.247674 7.865298 11.879752 -25.909069 9.428970 1.006084 -4.669120 4.448509 -8.750803 -2.879866 8.134532 -0.315479 5.028129 -2.185963 2.759611 -1.340170 6.419330 -3.413544 -6.977986 6.389461 -47.661678 6.898826 26.151582 -18.204599 -6.068785 -34.168448 57.485993 -17.405526 
72.923943 141.581345 81.824287 -8.180763 17.031022 35.562654 4.290548 -3.482232 -0.769564 2.701432 -0.956031 -0.001112 2.701432 -0.956029 -0.001106 2.026026 -0.717043 0.003391 1.903924 -15.977503 2.283305 4.374193 6.389235 4.942776 10.585807 2.725296 -2.198461 52.472273 -0.030072 -15.545190 -10.723923 -26.854649 -14.050328 -11.711324 -4.390959 5.982147 -7.395747 -1.522016 -0.742003 -86.086837 5.687623 -13.233392 -16.754567 12.356970 -32.273624 8.753984 12.931080 -26.410052 11.089634 0.477541 -4.875051 5.028048 -8.838393 -2.789798 6.892400 1.497647 3.891697 -1.304874 2.398397 -0.990665 7.559706 0.439767 -4.688767 9.463509 -49.573796 4.420494 27.100427 -19.488802 -6.731438 -37.141848 58.174128 -20.731427 
72.392319 143.019318 81.508942 -9.509926 16.951408 36.155839 4.948361 -2.774403 -0.167973 2.769528 -0.945902 0.010402 2.769527 -0.945900 0.010406 2.077115 -0.709396 0.012091 2.221375 -15.707019 2.000271 4.877335 6.888858 4.546179 10.553557 2.308555 -2.555758 52.842903 -0.640820 -12.724675 -10.798265 -27.746312 -13.863595 -13.631388 -4.570607 6.809990 -7.515476 -1.795624 -0.997673 -86.500494 5.934001 -12.804183 -16.092732 13.127677 -30.672269 9.477945 14.083579 -27.100854 12.374109 0.305962 -4.005427 5.591361 -8.828088 -2.931299 5.566101 3.111089 2.226503 -0.412897 2.065904 -0.342457 8.104333 4.779806 -2.753957 11.249005 -50.941740 2.155847 27.367514 -20.330717 -7.164304 -36.123798 57.953137 -20.591892 
71.770500 144.428650 81.238281 -10.357369 17.232186 37.239185 5.677476 -2.573258 0.071755 2.791734 -0.930545 0.041826 2.791735 -0.930544 0.041827 2.093820 -0.697736 0.035621 2.510210 -15.461581 1.680394 5.311858 7.346545 4.069860 10.460780 1.559677 -2.645559 53.526038 -1.119130 -9.717036 -10.842971 -28.271982 -13.507544 -15.615964 -4.193553 7.968808 -7.673261 -1.682512 -1.038674 -86.756844 5.747053 -11.902526 -15.175306 14.226832 -28.581237 10.254725 15.073130 -27.739849 13.385434 -0.235972 -3.209882 6.348428 -8.913446 -4.007478 4.420755 4.152674 1.611142 0.118791 2.263163 -0.177114 8.574088 8.796515 -2.688002 10.602870 -52.243680 1.094619 26.743196 -20.683505 -6.409642 -32.583090 56.496046 -17.832809 
71.119568 145.896042 81.001160 -10.881172 17.698309 38.347513 6.434217 -2.707508 0.380333 2.767165 -0.909901 0.099161 2.767164 -0.909901 0.099163 2.075478 -0.681994 0.078492 2.771550 -15.232601 1.321385 5.678846 7.778263 3.509719 10.271354 0.899716 -2.768001 54.498161 -1.957884 -6.688449 -10.871389 -28.483035 -12.966822 -17.525159 -3.370095 9.385217 -7.707545 -1.633749 -1.016961 -87.004903 5.557706 -10.966775 -14.163548 15.402628 -26.157939 11.278463 15.576914 -27.998206 14.362846 -1.278252 -3.189794 6.741237 -8.762493 -4.499837 3.442297 5.146187 1.211862 0.558839 2.347237 -0.051906 8.969593 12.597237 -3.820684 7.945594 -53.277729 2.040427 26.069715 -20.875240 -5.053006 -29.218279 53.987919 -15.033453 
70.365929 147.390839 80.774635 -10.955307 17.986622 39.524355 6.854220 -2.963093 0.709062 2.706747 -0.878837 0.181405 2.706749 -0.878837 0.181410 2.030283 -0.658340 0.139947 2.984728 -15.048013 0.947961 5.946972 8.131595 2.901978 10.173083 0.475596 -2.728767 55.493525 -3.004974 -3.726818 -10.812916 -28.440358 -12.396910 -19.377918 -2.358001 10.926208 -7.765678 -1.343980 -0.967588 -87.119486 5.744441 -9.680427 -12.984320 16.365447 -23.474621 12.380555 15.268574 -27.633972 15.105334 -2.635415 -4.235685 6.685021 -8.441227 -4.028935 2.562391 6.299857 0.862593 0.941695 2.148442 0.090754 8.947269 16.196557 -5.445874 4.252834 -53.336732 5.052089 25.760892 -20.723156 -4.430789 -26.134267 50.536201 -12.472380 
69.555290 148.889359 80.565315 -10.761211 17.998027 40.485444 6.997299 -3.168673 1.204013 2.619001 -0.831761 0.285651 2.619001 -0.831762 0.285651 1.964607 -0.622611 0.217801 3.120565 -14.944138 0.593320 6.072365 8.338165 2.295330 10.228732 0.079669 -2.464588 56.380295 -3.971344 -0.686919 -10.700819 -28.120247 -11.771062 -21.193650 -1.254372 12.461437 -7.906373 -0.771393 -0.782416 -87.112014 6.409544 -7.964950 -11.482684 16.959696 -20.554163 13.286708 14.167175 -26.764807 15.509210 -3.992378 -5.557274 6.445329 -8.207678 -3.190986 1.830450 7.489354 0.629306 1.230169 1.890501 0.207102 8.567284 19.462119 -6.739551 1.035225 -52.261370 8.759638 25.309730 -20.057096 -4.433547 -23.129927 46.156482 -10.080030 
68.624588 150.316620 80.379089 -10.317297 17.701642 41.177124 6.853186 -3.278815 1.832093 2.497831 -0.781187 0.413054 2.497831 -0.781186 0.413051 1.873872 -0.584213 0.312985 3.175387 -14.931150 0.279973 6.056904 8.377232 1.730076 10.344865 -0.414360 -2.184334 57.202083 -4.859832 2.699626 -10.532156 -27.598559 -11.118082 -22.912472 -0.096206 13.924365 -8.064116 -0.238932 -0.563151 -86.981407 7.530567 -6.134102 -9.623080 17.317332 -17.388466 13.882823 12.652021 -25.787021 15.369739 -5.249616 -6.542569 6.282681 -8.184821 -2.367529 1.334280 8.693403 0.624338 1.317144 1.679437 0.077790 7.940985 22.157446 -7.382430 -1.274664 -50.115837 11.958177 24.533365 -18.893685 -4.629363 -19.977410 40.960033 -7.767674 
67.580681 151.681061 80.218719 -9.702436 17.128557 41.707037 6.501003 -3.284714 2.438340 2.348415 -0.748057 0.567510 2.348416 -0.748058 0.567505 1.761982 -0.558872 0.428508 3.141377 -14.975342 0.014311 5.890758 8.310639 1.217574 10.479435 -0.770798 -1.999691 57.964312 -5.634280 6.389893 -10.275976 -27.192499 -10.414327 -24.417317 1.100070 15.172659 -8.152410 0.261465 -0.310437 -86.688337 8.698305 -4.225725 -7.461677 17.753736 -13.990024 14.205767 11.253590 -25.031284 14.875571 -6.376235 -7.191155 6.001909 -8.336918 -1.701510 1.048035 9.898261 0.605023 1.342418 1.525086 -0.038065 7.172470 24.212532 -7.312759 -2.724826 -46.938662 13.755775 23.359175 -17.809392 -4.318721 -16.743644 35.310186 -5.714690 
66.452309 152.999664 80.074730 -9.043125 16.401647 42.088162 6.088727 -3.196093 2.935113 2.196725 -0.737925 0.716886 2.196723 -0.737925 0.716879 1.648389 -0.550876 0.540316 2.976403 -15.056638 -0.158026 5.513781 8.174315 0.828977 10.617475 -0.913653 -1.846024 58.690156 -6.131598 10.200753 -9.955971 -27.117265 -9.462042 -25.670662 2.121888 16.124246 -8.149219 0.790026 0.049018 -86.306619 9.668535 -2.146828 -5.038269 18.477922 -10.454518 14.423061 10.275915 -24.578731 14.223692 -7.403218 -7.559910 5.629091 -8.578365 -1.179614 0.927366 10.987382 0.495762 1.314947 1.487779 -0.057776 6.393499 25.651349 -6.515722 -3.455660 -42.981916 13.932572 21.676828 -17.082054 -3.372976 -13.219897 29.636843 -3.911275 
